<?xml version="1.0" encoding="UTF-8"?>
<svg version="1.1" xmlns="http://www.w3.org/2000/svg" width="800" height="800">
<path d="M0 0 C14.64399093 0 14.64399093 0 19.578125 0.734375 C21.21140747 0.97365723 21.21140747 0.97365723 22.87768555 1.21777344 C23.99054932 1.3934082 25.10341309 1.56904297 26.25 1.75 C28.02467651 2.02505371 28.02467651 2.02505371 29.83520508 2.30566406 C58.34450018 6.84596838 85.80538697 16.06137744 111.11816406 29.97314453 C112.73255911 30.85406638 114.36109874 31.70897963 115.9921875 32.55859375 C132.01680827 40.95131056 146.85931996 51.97864658 160.07421875 64.28515625 C161.89392569 66.05563939 161.89392569 66.05563939 164 67 C164 67.66 164 68.32 164 69 C164.59167969 69.26554687 165.18335938 69.53109375 165.79296875 69.8046875 C172.31843107 73.33883169 177.23956752 80.42771082 182 86 C182.88010507 87.01571448 183.76032132 88.03133264 184.640625 89.046875 C190.16486783 95.45289947 195.37216625 101.90460902 200 109 C200.4448877 109.67836914 200.88977539 110.35673828 201.34814453 111.05566406 C207.36150347 120.26270207 213.02180332 129.44697871 217.6953125 139.41015625 C218.87032942 142.079242 218.87032942 142.079242 221 144 C222.01836994 146.49064191 222.96719404 148.96960973 223.875 151.5 C224.4118294 152.96778876 224.94958736 154.43523825 225.48828125 155.90234375 C225.74818848 156.61245605 226.0080957 157.32256836 226.27587891 158.05419922 C227.15344867 160.4123351 228.09899396 162.73828748 229.0625 165.0625 C239.34023706 190.65022713 244.42755958 218.47022153 245 246 C245.02046387 246.66128906 245.04092773 247.32257813 245.06201172 248.00390625 C246.43881924 294.51951889 234.45733916 340.46308316 210.57421875 380.33984375 C209.18036134 382.69522066 207.89512036 385.07680109 206.625 387.5 C203.6789691 392.82772471 199.99313461 397.57258153 196.26220703 402.37011719 C194.983591 404.02118888 193.72349314 405.68523585 192.46484375 407.3515625 C180.68704345 422.8008782 167.24202779 436.95409399 152 449 C151.38334473 449.49306641 150.76668945 449.98613281 150.13134766 450.49414062 C140.25588298 458.36732996 130.10047838 465.33819308 119.19262695 471.7043457 C117.66994515 472.60411993 116.15870651 473.5234306 114.65698242 474.45776367 C108.38266445 478.3412113 101.94998506 481.49463548 95.1875 484.4375 C94.10162598 484.91195557 93.01575195 485.38641113 91.89697266 485.87524414 C81.78419524 490.21888347 71.53111892 493.82199697 61 497 C59.75992188 497.38671875 58.51984375 497.7734375 57.2421875 498.171875 C41.65662511 502.70458889 25.24713658 505.02384564 9.0625 505.875 C8.17481934 505.92422607 7.28713867 505.97345215 6.37255859 506.02416992 C4.24987107 506.10435473 2.12324814 506.06363381 0 506 C-0.66 505.34 -1.32 504.68 -2 504 C-1.34 504 -0.68 504 0 504 C0 337.68 0 171.36 0 0 Z " fill="#000000" transform="translate(414,146)"/>
<path d="M0 0 C0.02465881 3.96930989 0.04284023 7.93859034 0.05493164 11.90795898 C0.05997057 13.25920386 0.06680177 14.61044326 0.07543945 15.96166992 C0.08752419 17.90020434 0.09269828 19.838778 0.09765625 21.77734375 C0.10289307 22.94515381 0.10812988 24.11296387 0.11352539 25.31616211 C0 28 0 28 -1 29 C-2.50839421 29.16831219 -4.0235747 29.27643643 -5.5390625 29.359375 C-19.26998125 30.23221984 -32.27969155 32.17039859 -45.64453125 35.43017578 C-47.56919644 35.89578197 -49.50237303 36.32608324 -51.4375 36.74609375 C-79.2487382 42.96499563 -111.67790105 57.67790105 -132 78 C-133.98934795 79.51629706 -136.00789205 80.9889454 -138.02734375 82.46484375 C-140.01987817 83.94028935 -140.01987817 83.94028935 -141.62890625 85.69140625 C-143 87 -143 87 -145 87 C-145 87.66 -145 88.32 -145 89 C-146.29296875 90.234375 -146.29296875 90.234375 -148.1875 91.75 C-169.77876106 110.26763691 -186.05147182 135.39511408 -198 161 C-198.30534668 161.64936523 -198.61069336 162.29873047 -198.92529297 162.96777344 C-202.47441546 170.58142757 -205.57304262 178.28651508 -208.25 186.25 C-208.48412598 186.94593262 -208.71825195 187.64186523 -208.95947266 188.35888672 C-219.67906586 221.31683313 -221.84904888 258.96960218 -215 293 C-214.81244141 293.9389209 -214.62488281 294.8778418 -214.43164062 295.84521484 C-212.26404842 306.43239459 -209.83450878 316.87898364 -206 327 C-205.76055664 327.65355469 -205.52111328 328.30710937 -205.27441406 328.98046875 C-199.86667122 343.72765485 -193.38466554 357.69633068 -185 371 C-184.52691406 371.79792969 -184.05382812 372.59585937 -183.56640625 373.41796875 C-174.05883861 389.09004409 -161.58191477 405.86540773 -147.09765625 417.2890625 C-146.40542969 417.85367187 -145.71320313 418.41828125 -145 419 C-145 419.66 -145 420.32 -145 421 C-144.10861328 421.40605469 -144.10861328 421.40605469 -143.19921875 421.8203125 C-141.01944688 422.98956846 -139.59328619 424.17458183 -137.8125 425.875 C-125.85050575 436.51034055 -112.10776096 444.58710958 -98 452 C-96.80721799 452.64309253 -95.61450483 453.28631278 -94.421875 453.9296875 C-79.40664275 461.78649507 -63.36228995 466.79199009 -47 471 C-45.94208252 471.28472168 -45.94208252 471.28472168 -44.86279297 471.57519531 C-41.35906661 472.49855708 -38.13151059 473.25469681 -34.5 473.125 C-32.7675 473.063125 -32.7675 473.063125 -31 473 C-31 473.66 -31 474.32 -31 475 C-25.13161849 475.4796764 -19.2664833 475.94173886 -13.38671875 476.25390625 C-12.23224243 476.3159021 -12.23224243 476.3159021 -11.05444336 476.37915039 C-9.52811964 476.45919385 -8.00158152 476.53525654 -6.47485352 476.60717773 C-1.10986804 476.89013196 -1.10986804 476.89013196 0 478 C0.08758003 479.99964982 0.10696576 482.0023611 0.09765625 484.00390625 C0.09443359 485.21884766 0.09121094 486.43378906 0.08789062 487.68554688 C0.07951172 488.96494141 0.07113281 490.24433594 0.0625 491.5625 C0.05798828 492.84576172 0.05347656 494.12902344 0.04882812 495.45117188 C0.03699545 498.63416022 0.02051068 501.81705762 0 505 C-38.76295864 514.1378538 -93.89080829 489.16974464 -125.88671875 469.65625 C-151.34107895 453.76881058 -175.83628082 433.03482033 -194 409 C-194.64839844 408.14535156 -195.29679687 407.29070312 -195.96484375 406.41015625 C-203.57446311 396.14847153 -210.69345599 385.54976733 -217 374.4375 C-217.37374756 373.78305908 -217.74749512 373.12861816 -218.13256836 372.4543457 C-219.75358011 369.54132644 -221.07680617 366.76771467 -222.125 363.59765625 C-222.71035185 360.85112714 -222.71035185 360.85112714 -225 360 C-225.72045764 358.0187415 -226.37245737 356.01261886 -227 354 C-228.12929134 350.94385532 -229.31649998 347.91050423 -230.5 344.875 C-230.80808594 344.07707031 -231.11617187 343.27914063 -231.43359375 342.45703125 C-231.88412109 341.29880859 -231.88412109 341.29880859 -232.34375 340.1171875 C-232.61380859 339.42222168 -232.88386719 338.72725586 -233.16210938 338.01123047 C-233.9846567 335.96140199 -233.9846567 335.96140199 -235.07421875 333.90966797 C-236.32337168 331.33296062 -236.54835139 328.82944569 -237 326 C-237.76633663 322.8977558 -238.63201643 319.82514179 -239.5 316.75 C-239.72558594 315.9353125 -239.95117188 315.120625 -240.18359375 314.28125 C-241.32619287 310.04098663 -241.32619287 310.04098663 -243 306 C-243.1824992 304.54580004 -243.32165848 303.08602163 -243.4375 301.625 C-243.78400008 297.78599913 -244.3136629 294.04264799 -245 290.25 C-251.65567028 251.37801871 -246.93982891 208.97760116 -234 172 C-233.75725342 171.29504395 -233.51450684 170.59008789 -233.2644043 169.86376953 C-226.00040531 149.02777694 -216.03383823 127.87414505 -203 110 C-202.57992676 109.42040527 -202.15985352 108.84081055 -201.72705078 108.24365234 C-195.55011279 99.75323876 -189.1607789 91.69120697 -182 84 C-180.8705773 82.69130385 -179.74541241 81.37891836 -178.625 80.0625 C-170.817834 71.14002457 -162.28819133 63.34859843 -153 56 C-152.2471875 55.36835938 -151.494375 54.73671875 -150.71875 54.0859375 C-111.79134138 21.690868 -59.85199515 2.37092299 -9.4375 -0.75 C-8.7168335 -0.79471436 -7.99616699 -0.83942871 -7.25366211 -0.88549805 C-2.26263337 -1.13131668 -2.26263337 -1.13131668 0 0 Z " fill="#020202" transform="translate(388,146)"/>
<path d="M0 0 C0 9.57 0 19.14 0 29 C-4.4240625 29.309375 -4.4240625 29.309375 -8.9375 29.625 C-47.39448586 32.95601664 -84.17977285 49.20958267 -112.29296875 75.6015625 C-114 77 -114 77 -116 77 C-116.2578125 77.58910156 -116.515625 78.17820312 -116.78125 78.78515625 C-118.10152454 81.18450133 -119.48998306 82.58811966 -121.5 84.4375 C-150.37768484 112.68967542 -168.47017461 155.34716747 -169.16796875 195.50390625 C-169.32179077 219.24934532 -167.24996512 241.57622264 -159 264 C-158.67773438 264.96292969 -158.35546875 265.92585938 -158.0234375 266.91796875 C-152.82589658 281.66926294 -144.73375776 295.7823165 -135 308 C-134.37867188 308.81082031 -133.75734375 309.62164062 -133.1171875 310.45703125 C-105.28503522 346.23317841 -64.19572785 370.97812542 -19.01171875 377.00390625 C-13.6969486 377.65525717 -8.37551645 378.21663948 -3.04345703 378.70629883 C-1 379 -1 379 0 380 C0.08767112 382.07262076 0.10695873 384.14820294 0.09765625 386.22265625 C0.09443359 387.48271484 0.09121094 388.74277344 0.08789062 390.04101562 C0.07953403 391.38151109 0.07106907 392.72200588 0.0625 394.0625 C0.0574866 395.40689942 0.05292342 396.7513006 0.04882812 398.09570312 C0.03699497 401.39715433 0.01905886 404.6985826 0 408 C-4.29 408.33 -8.58 408.66 -13 409 C-13 408.67 -13 408.34 -13 408 C-13.59611084 407.91548584 -14.19222168 407.83097168 -14.80639648 407.74389648 C-71.44780362 399.51053821 -122.68671472 373.74454814 -157.46655273 327.31274414 C-164.51582719 317.69484517 -171.78694968 307.75191628 -177 297 C-177.53625 295.96875 -178.0725 294.9375 -178.625 293.875 C-180 291 -180 291 -180 289 C-180.66 288.67 -181.32 288.34 -182 288 C-182.74609375 286.1796875 -182.74609375 286.1796875 -183.4375 283.875 C-184.27262769 281.11669255 -185.19424452 278.56803982 -186.37890625 275.93359375 C-191.65402908 263.81370128 -194.75623049 250.00469508 -196.9375 237 C-197.05351562 236.31446045 -197.16953125 235.6289209 -197.2890625 234.92260742 C-198.04598425 229.92704673 -198.1114544 225.03511649 -198 220 C-198.66 219.67 -199.32 219.34 -200 219 C-200 208.44 -200 197.88 -200 187 C-199.67 187 -199.34 187 -199 187 C-198.84966309 185.98184204 -198.84966309 185.98184204 -198.69628906 184.94311523 C-196.77287467 172.06038219 -194.71927436 159.49849174 -191 147 C-190.63969215 145.67413322 -190.28302509 144.34727258 -189.9296875 143.01953125 C-189.57840146 141.72127933 -189.22684771 140.42309981 -188.875 139.125 C-188.56304687 137.97257813 -188.25109375 136.82015625 -187.9296875 135.6328125 C-187 133 -187 133 -185 132 C-185.33 131.01 -185.66 130.02 -186 129 C-185.34 129 -184.68 129 -184 129 C-183.67 127.845 -183.34 126.69 -183 125.5 C-177.4992055 109.15112705 -167.72375118 93.23479979 -156.6875 80.0625 C-155.18423528 78.22517646 -153.88804834 76.38101796 -152.625 74.375 C-152.08875 73.59125 -151.5525 72.8075 -151 72 C-150.34 72 -149.68 72 -149 72 C-148.63334229 71.14764771 -148.63334229 71.14764771 -148.25927734 70.27807617 C-145.67176481 65.59717671 -141.39091254 62.05589485 -137.625 58.3125 C-136.27365967 56.96526855 -136.27365967 56.96526855 -134.89501953 55.59082031 C-118.04128458 39 -118.04128458 39 -113 39 C-113 38.34 -113 37.68 -113 37 C-111.41796875 35.79833984 -111.41796875 35.79833984 -109.1875 34.4609375 C-108.36725342 33.96674316 -107.54700684 33.47254883 -106.7019043 32.96337891 C-105.81027588 32.43921387 -104.91864746 31.91504883 -104 31.375 C-102.63645386 30.56748291 -102.63645386 30.56748291 -101.24536133 29.74365234 C-78.07692083 16.16432122 -53.52845547 6.5417197 -27 2 C-25.90429688 1.79503906 -24.80859375 1.59007812 -23.6796875 1.37890625 C-15.48829458 -0.05212022 -8.56944082 0 0 0 Z " fill="#010101" transform="translate(388,196)"/>
<path d="M0 0 C0 9.57 0 19.14 0 29 C-2.619375 29.226875 -5.23875 29.45375 -7.9375 29.6875 C-33.92750363 32.4009635 -57.21709151 44.28502919 -77 61 C-77.69222656 61.56976563 -78.38445312 62.13953125 -79.09765625 62.7265625 C-81.91781041 65.07765611 -83.93838717 66.90758076 -86 70 C-86.66 70 -87.32 70 -88 70 C-88.37898438 70.84498047 -88.37898438 70.84498047 -88.765625 71.70703125 C-90.1722231 74.31992076 -91.85382536 76.40547587 -93.75 78.6875 C-109.99286438 98.79353213 -119.92436915 123.91224846 -119 150 C-119.66 150 -120.32 150 -121 150 C-119.13215391 171.31131052 -119.13215391 171.31131052 -114 192 C-113.79536133 192.63373535 -113.59072266 193.2674707 -113.37988281 193.92041016 C-108.1795139 209.88297752 -99.54014061 223.05875533 -89 236 C-88.40574219 236.74894531 -87.81148438 237.49789062 -87.19921875 238.26953125 C-67.18249011 262.49025063 -34.7490654 274.40446169 -4.55078125 278.45703125 C-1 279 -1 279 0 280 C0.08767112 282.07262076 0.10695873 284.14820294 0.09765625 286.22265625 C0.09443359 287.48271484 0.09121094 288.74277344 0.08789062 290.04101562 C0.07953403 291.38151109 0.07106907 292.72200588 0.0625 294.0625 C0.0574866 295.40689942 0.05292342 296.7513006 0.04882812 298.09570312 C0.03699488 301.39717941 0.02050971 304.69856803 0 308 C-9.19835199 312.599176 -31.37531064 304.57740552 -40.80078125 301.46484375 C-62.45469189 293.94600307 -82.39627933 282.95076536 -99 267 C-100.32834368 265.86911281 -101.66154715 264.74390426 -103 263.625 C-111.7072207 255.96264579 -118.50733882 247.22019529 -124.97753906 237.66259766 C-125.45803711 236.95796387 -125.93853516 236.25333008 -126.43359375 235.52734375 C-126.85697021 234.89562256 -127.28034668 234.26390137 -127.71655273 233.61303711 C-129.08829599 231.72033596 -129.08829599 231.72033596 -132 230 C-131.34 230 -130.68 230 -130 230 C-130.51949219 228.99582031 -131.03898437 227.99164063 -131.57421875 226.95703125 C-141.51534446 207.53760161 -141.51534446 207.53760161 -144 197 C-144.5259375 195.2984375 -144.5259375 195.2984375 -145.0625 193.5625 C-145.87379531 190.47957782 -146.1908884 188.14965852 -146 185 C-146.66 184.67 -147.32 184.34 -148 184 C-151.38251974 162.30822826 -151.39408393 136.03058213 -145 115 C-144.80744629 114.33258789 -144.61489258 113.66517578 -144.41650391 112.97753906 C-140.51902515 99.634291 -134.85893514 87.06457646 -128 75 C-127.67 74.34 -127.34 73.68 -127 73 C-125.47742964 70.94073818 -123.93918192 68.90224144 -122.375 66.875 C-121.92133057 66.28678467 -121.46766113 65.69856934 -121.00024414 65.0925293 C-117.49247849 60.57509345 -113.8307662 56.24696918 -110 52 C-109.32582031 51.21109375 -108.65164063 50.4221875 -107.95703125 49.609375 C-102.49803871 43.30979423 -96.61415712 38.06166746 -90 33 C-89.113125 32.32066406 -88.22625 31.64132812 -87.3125 30.94140625 C-84.5782366 28.90263136 -81.80711416 26.93714076 -79 25 C-77.62714844 24.04673828 -77.62714844 24.04673828 -76.2265625 23.07421875 C-53.40097774 8.12675577 -27.14500917 0 0 0 Z " fill="#010101" transform="translate(388,246)"/>
<path d="M0 0 C0.02465746 4.1117256 0.04283959 8.22342278 0.05493164 12.33520508 C0.0599708 13.73495228 0.06680216 15.1346942 0.07543945 16.53442383 C0.0875232 18.54245777 0.09269807 20.55052957 0.09765625 22.55859375 C0.10289307 23.76829834 0.10812988 24.97800293 0.11352539 26.22436523 C0 29 0 29 -1 30 C-2.8511617 30.25229297 -4.70627109 30.47568492 -6.5625 30.6875 C-22.99582433 33.15610245 -36.87532438 40.68363609 -49 52 C-49.495 52.99 -49.495 52.99 -50 54 C-50.66 54 -51.32 54 -52 54 C-52.2475 54.556875 -52.495 55.11375 -52.75 55.6875 C-54 58 -54 58 -55.88671875 60.28125 C-67.18675749 74.81882295 -71.12895915 94.00178584 -70 112 C-69.505 112.99 -69.505 112.99 -69 114 C-68.89513341 115.43608972 -68.81591703 116.87409615 -68.75 118.3125 C-67.22482448 134.37306036 -57.34796761 149.95829861 -45.31640625 160.30859375 C-32.7659008 170.19232513 -18.97622905 176.72397221 -2.8984375 177.7890625 C-1 178 -1 178 0 179 C0.08775605 181.14558827 0.10695219 183.29404421 0.09765625 185.44140625 C0.09282227 187.39916992 0.09282227 187.39916992 0.08789062 189.39648438 C0.07953401 190.7851569 0.07106905 192.17382877 0.0625 193.5625 C0.05748666 194.95507656 0.05292347 196.34765481 0.04882812 197.74023438 C0.03699434 201.1601987 0.0205088 204.58007844 0 208 C-3.76200222 209.25400074 -6.59465771 208.56130198 -10.375 207.8125 C-11.08817383 207.67376465 -11.80134766 207.5350293 -12.53613281 207.39208984 C-40.7675031 201.68414226 -66.2920707 186.79289368 -83.05078125 162.98828125 C-90.39582278 151.72784685 -98 137.8127835 -98 124 C-98.66 123.67 -99.32 123.34 -100 123 C-100.38361193 97.0294726 -98.71690016 75.10226417 -86 52 C-85.21689453 50.54980469 -85.21689453 50.54980469 -84.41796875 49.0703125 C-76.05233085 34.79578099 -62.65783985 21.9381091 -48.24609375 13.85546875 C-45.03137829 12.20670654 -45.03137829 12.20670654 -43 10 C-41.01502117 9.28985671 -39.01187924 8.62990981 -37 8 C-35.9584375 7.60941406 -34.916875 7.21882813 -33.84375 6.81640625 C-22.64122267 2.6154585 -11.9969678 -0.28890037 0 0 Z " fill="#010101" transform="translate(388,296)"/>
<path d="M0 0 C0 9.57 0 19.14 0 29 C-3.3 30.32 -6.6 31.64 -10 33 C-16.54073549 37.36049033 -19.13357384 42.41877188 -20.9375 49.875 C-21.44306681 55.97791362 -19.38753442 61.72047916 -16.25 66.875 C-11.46790196 71.39142593 -6.01083542 73.42392768 0 76 C0 85.24 0 94.48 0 104 C-15.09320165 104 -27.39828104 97.45515142 -38 87 C-42 82.5 -42 82.5 -42 80 C-42.66 79.67 -43.32 79.34 -44 79 C-44.92876556 77.13957552 -45.77030408 75.23505308 -46.5625 73.3125 C-46.99691406 72.27738281 -47.43132812 71.24226563 -47.87890625 70.17578125 C-49.92993635 64.36572038 -50.16308391 58.80200748 -50.125 52.6875 C-50.12306641 51.93927979 -50.12113281 51.19105957 -50.11914062 50.42016602 C-50.07845661 45.21656789 -49.74981627 40.15498686 -49 35 C-48.34 35 -47.68 35 -47 35 C-46.86464844 34.45472656 -46.72929687 33.90945313 -46.58984375 33.34765625 C-44.69050695 26.6942908 -41.53438747 22.16109143 -37 17 C-36.44828125 16.319375 -35.8965625 15.63875 -35.328125 14.9375 C-27.68861051 6.28389067 -11.71273717 -2.92818429 0 0 Z " fill="#020202" transform="translate(388,348)"/>
<path d="M0 0 C0.33 0 0.66 0 1 0 C1 3.96 1 7.92 1 12 C0.67 12 0.34 12 0 12 C0 8.04 0 4.08 0 0 Z " fill="#000000" transform="translate(412,367)"/>
<path d="M0 0 C0.33 0 0.66 0 1 0 C1 3.63 1 7.26 1 11 C0.67 11 0.34 11 0 11 C0 7.37 0 3.74 0 0 Z " fill="#000000" transform="translate(412,574)"/>
<path d="M0 0 C0.33 0 0.66 0 1 0 C1 3.63 1 7.26 1 11 C0.67 11 0.34 11 0 11 C0 7.37 0 3.74 0 0 Z " fill="#000000" transform="translate(412,549)"/>
<path d="M0 0 C0.33 0 0.66 0 1 0 C1 3.63 1 7.26 1 11 C0.67 11 0.34 11 0 11 C0 7.37 0 3.74 0 0 Z " fill="#000000" transform="translate(412,306)"/>
<path d="M0 0 C0.33 0 0.66 0 1 0 C1 3.3 1 6.6 1 10 C0.67 10 0.34 10 0 10 C0 6.7 0 3.4 0 0 Z " fill="#000000" transform="translate(412,269)"/>
<path d="M0 0 C0.33 0 0.66 0 1 0 C1 3.3 1 6.6 1 10 C0.67 10 0.34 10 0 10 C0 6.7 0 3.4 0 0 Z " fill="#000000" transform="translate(412,194)"/>
<path d="M0 0 C0.33 0 0.66 0 1 0 C1 2.97 1 5.94 1 9 C0.67 9 0.34 9 0 9 C0 6.03 0 3.06 0 0 Z " fill="#000000" transform="translate(412,469)"/>
<path d="M0 0 C0.33 0 0.66 0 1 0 C1 1.98 1 3.96 1 6 C0.67 6 0.34 6 0 6 C0 4.02 0 2.04 0 0 Z " fill="#000000" transform="translate(412,480)"/>
<path d="M0 0 C0.33 0 0.66 0 1 0 C1 1.98 1 3.96 1 6 C0.67 6 0.34 6 0 6 C0 4.02 0 2.04 0 0 Z " fill="#000000" transform="translate(412,462)"/>
<path d="M0 0 C0.33 0 0.66 0 1 0 C1 1.98 1 3.96 1 6 C0.67 6 0.34 6 0 6 C0 4.02 0 2.04 0 0 Z " fill="#000000" transform="translate(412,442)"/>
<path d="M0 0 C0.33 0 0.66 0 1 0 C1 1.98 1 3.96 1 6 C0.67 6 0.34 6 0 6 C0 4.02 0 2.04 0 0 Z " fill="#000000" transform="translate(412,299)"/>
<path d="M0 0 C0.33 0 0.66 0 1 0 C1 1.65 1 3.3 1 5 C0.67 5 0.34 5 0 5 C0 3.35 0 1.7 0 0 Z " fill="#000000" transform="translate(412,618)"/>
<path d="M0 0 C0.33 0 0.66 0 1 0 C1 1.65 1 3.3 1 5 C0.67 5 0.34 5 0 5 C0 3.35 0 1.7 0 0 Z " fill="#000000" transform="translate(412,599)"/>
<path d="M0 0 C0.33 0 0.66 0 1 0 C1 1.65 1 3.3 1 5 C0.67 5 0.34 5 0 5 C0 3.35 0 1.7 0 0 Z " fill="#000000" transform="translate(412,561)"/>
<path d="M0 0 C0.33 0 0.66 0 1 0 C1 1.65 1 3.3 1 5 C0.67 5 0.34 5 0 5 C0 3.35 0 1.7 0 0 Z " fill="#000000" transform="translate(412,543)"/>
<path d="M0 0 C0.33 0 0.66 0 1 0 C1 1.65 1 3.3 1 5 C0.67 5 0.34 5 0 5 C0 3.35 0 1.7 0 0 Z " fill="#000000" transform="translate(412,519)"/>
<path d="M0 0 C0.33 0 0.66 0 1 0 C1 1.65 1 3.3 1 5 C0.67 5 0.34 5 0 5 C0 3.35 0 1.7 0 0 Z " fill="#000000" transform="translate(412,436)"/>
<path d="M0 0 C0.33 0 0.66 0 1 0 C1 1.65 1 3.3 1 5 C0.67 5 0.34 5 0 5 C0 3.35 0 1.7 0 0 Z " fill="#000000" transform="translate(412,418)"/>
<path d="M0 0 C0.33 0 0.66 0 1 0 C1 1.65 1 3.3 1 5 C0.67 5 0.34 5 0 5 C0 3.35 0 1.7 0 0 Z " fill="#000000" transform="translate(412,411)"/>
<path d="M0 0 C0.33 0 0.66 0 1 0 C1 1.65 1 3.3 1 5 C0.67 5 0.34 5 0 5 C0 3.35 0 1.7 0 0 Z " fill="#000000" transform="translate(412,393)"/>
<path d="M0 0 C0.33 0 0.66 0 1 0 C1 1.65 1 3.3 1 5 C0.67 5 0.34 5 0 5 C0 3.35 0 1.7 0 0 Z " fill="#000000" transform="translate(412,386)"/>
<path d="M0 0 C0.33 0 0.66 0 1 0 C1 1.65 1 3.3 1 5 C0.67 5 0.34 5 0 5 C0 3.35 0 1.7 0 0 Z " fill="#000000" transform="translate(412,343)"/>
<path d="M0 0 C0.33 0 0.66 0 1 0 C1 1.65 1 3.3 1 5 C0.67 5 0.34 5 0 5 C0 3.35 0 1.7 0 0 Z " fill="#000000" transform="translate(412,336)"/>
<path d="M0 0 C0.33 0 0.66 0 1 0 C1 1.65 1 3.3 1 5 C0.67 5 0.34 5 0 5 C0 3.35 0 1.7 0 0 Z " fill="#000000" transform="translate(412,249)"/>
<path d="M0 0 C0.33 0 0.66 0 1 0 C1 1.65 1 3.3 1 5 C0.67 5 0.34 5 0 5 C0 3.35 0 1.7 0 0 Z " fill="#000000" transform="translate(412,230)"/>
<path d="M0 0 C0.33 0 0.66 0 1 0 C1 1.65 1 3.3 1 5 C0.67 5 0.34 5 0 5 C0 3.35 0 1.7 0 0 Z " fill="#000000" transform="translate(412,224)"/>
<path d="M0 0 C0.33 0 0.66 0 1 0 C1 1.65 1 3.3 1 5 C0.67 5 0.34 5 0 5 C0 3.35 0 1.7 0 0 Z " fill="#000000" transform="translate(412,218)"/>
<path d="M0 0 C1 4 1 4 1 4 Z " fill="#000000" transform="translate(412,644)"/>
<path d="M0 0 C1 4 1 4 1 4 Z " fill="#000000" transform="translate(412,606)"/>
<path d="M0 0 C1 4 1 4 1 4 Z " fill="#000000" transform="translate(412,512)"/>
<path d="M0 0 C1 4 1 4 1 4 Z " fill="#000000" transform="translate(412,431)"/>
<path d="M0 0 C1 4 1 4 1 4 Z " fill="#000000" transform="translate(412,424)"/>
<path d="M0 0 C1 4 1 4 1 4 Z " fill="#000000" transform="translate(412,406)"/>
<path d="M0 0 C1 4 1 4 1 4 Z " fill="#000000" transform="translate(237,388)"/>
<path d="M0 0 C1 4 1 4 1 4 Z " fill="#000000" transform="translate(412,380)"/>
<path d="M0 0 C1 4 1 4 1 4 Z " fill="#000000" transform="translate(412,356)"/>
<path d="M0 0 C1 4 1 4 1 4 Z " fill="#000000" transform="translate(412,350)"/>
<path d="M0 0 C1 4 1 4 1 4 Z " fill="#000000" transform="translate(412,331)"/>
<path d="M0 0 C1 4 1 4 1 4 Z " fill="#000000" transform="translate(412,325)"/>
<path d="M0 0 C1 4 1 4 1 4 Z " fill="#000000" transform="translate(412,294)"/>
<path d="M0 0 C1 4 1 4 1 4 Z " fill="#000000" transform="translate(412,262)"/>
<path d="M0 0 C1 4 1 4 1 4 Z " fill="#000000" transform="translate(412,244)"/>
<path d="M0 0 C1 4 1 4 1 4 Z " fill="#000000" transform="translate(412,237)"/>
<path d="M0 0 C1 4 1 4 1 4 Z " fill="#000000" transform="translate(412,150)"/>
<path d="" fill="#000000" transform="translate(0,0)"/>
<path d="" fill="#000000" transform="translate(0,0)"/>
<path d="" fill="#000000" transform="translate(0,0)"/>
<path d="" fill="#000000" transform="translate(0,0)"/>
<path d="" fill="#000000" transform="translate(0,0)"/>
<path d="" fill="#000000" transform="translate(0,0)"/>
<path d="" fill="#000000" transform="translate(0,0)"/>
<path d="" fill="#000000" transform="translate(0,0)"/>
<path d="" fill="#000000" transform="translate(0,0)"/>
<path d="" fill="#000000" transform="translate(0,0)"/>
<path d="" fill="#000000" transform="translate(0,0)"/>
<path d="" fill="#000000" transform="translate(0,0)"/>
<path d="" fill="#000000" transform="translate(0,0)"/>
<path d="" fill="#000000" transform="translate(0,0)"/>
<path d="" fill="#000000" transform="translate(0,0)"/>
<path d="" fill="#000000" transform="translate(0,0)"/>
<path d="" fill="#000000" transform="translate(0,0)"/>
<path d="" fill="#000000" transform="translate(0,0)"/>
<path d="" fill="#000000" transform="translate(0,0)"/>
<path d="" fill="#000000" transform="translate(0,0)"/>
<path d="" fill="#000000" transform="translate(0,0)"/>
<path d="" fill="#000000" transform="translate(0,0)"/>
<path d="" fill="#000000" transform="translate(0,0)"/>
<path d="" fill="#000000" transform="translate(0,0)"/>
<path d="" fill="#000000" transform="translate(0,0)"/>
<path d="" fill="#000000" transform="translate(0,0)"/>
<path d="" fill="#000000" transform="translate(0,0)"/>
<path d="" fill="#000000" transform="translate(0,0)"/>
<path d="" fill="#000000" transform="translate(0,0)"/>
<path d="" fill="#000000" transform="translate(0,0)"/>
<path d="M0 0 C2 1 2 1 2 1 Z " fill="#000000" transform="translate(352,462)"/>
<path d="" fill="#000000" transform="translate(0,0)"/>
<path d="M0 0 C2 1 2 1 2 1 Z " fill="#000000" transform="translate(187,370)"/>
<path d="" fill="#000000" transform="translate(0,0)"/>
<path d="M0 0 C2 1 2 1 2 1 Z " fill="#000000" transform="translate(305,312)"/>
<path d="" fill="#000000" transform="translate(0,0)"/>
<path d="M0 0 C2 1 2 1 2 1 Z " fill="#000000" transform="translate(156,301)"/>
<path d="M0 0 C2 1 2 1 2 1 Z " fill="#000000" transform="translate(377,295)"/>
<path d="" fill="#000000" transform="translate(0,0)"/>
<path d="M0 0 C2 1 2 1 2 1 Z " fill="#000000" transform="translate(237,195)"/>
<path d="M0 0 C2 1 2 1 2 1 Z " fill="#000000" transform="translate(300,162)"/>
<path d="" fill="#000000" transform="translate(0,0)"/>
<path d="" fill="#000000" transform="translate(0,0)"/>
<path d="" fill="#000000" transform="translate(0,0)"/>
<path d="" fill="#000000" transform="translate(0,0)"/>
<path d="" fill="#000000" transform="translate(0,0)"/>
<path d="" fill="#000000" transform="translate(0,0)"/>
<path d="" fill="#000000" transform="translate(0,0)"/>
<path d="" fill="#000000" transform="translate(0,0)"/>
<path d="" fill="#000000" transform="translate(0,0)"/>
<path d="" fill="#000000" transform="translate(0,0)"/>
<path d="" fill="#000000" transform="translate(0,0)"/>
<path d="" fill="#000000" transform="translate(0,0)"/>
<path d="" fill="#000000" transform="translate(0,0)"/>
<path d="" fill="#000000" transform="translate(0,0)"/>
<path d="" fill="#000000" transform="translate(0,0)"/>
<path d="" fill="#000000" transform="translate(0,0)"/>
<path d="" fill="#000000" transform="translate(0,0)"/>
<path d="" fill="#000000" transform="translate(0,0)"/>
<path d="" fill="#000000" transform="translate(0,0)"/>
<path d="" fill="#000000" transform="translate(0,0)"/>
<path d="" fill="#000000" transform="translate(0,0)"/>
<path d="" fill="#000000" transform="translate(0,0)"/>
<path d="" fill="#000000" transform="translate(0,0)"/>
<path d="" fill="#000000" transform="translate(0,0)"/>
<path d="" fill="#000000" transform="translate(0,0)"/>
<path d="" fill="#000000" transform="translate(0,0)"/>
<path d="" fill="#000000" transform="translate(0,0)"/>
<path d="" fill="#000000" transform="translate(0,0)"/>
<path d="" fill="#000000" transform="translate(0,0)"/>
<path d="" fill="#000000" transform="translate(0,0)"/>
<path d="" fill="#000000" transform="translate(0,0)"/>
<path d="" fill="#000000" transform="translate(0,0)"/>
<path d="" fill="#000000" transform="translate(0,0)"/>
<path d="" fill="#000000" transform="translate(0,0)"/>
<path d="" fill="#000000" transform="translate(0,0)"/>
<path d="" fill="#000000" transform="translate(0,0)"/>
<path d="" fill="#000000" transform="translate(0,0)"/>
<path d="" fill="#000000" transform="translate(0,0)"/>
<path d="" fill="#000000" transform="translate(0,0)"/>
<path d="" fill="#000000" transform="translate(0,0)"/>
<path d="" fill="#000000" transform="translate(0,0)"/>
<path d="" fill="#000000" transform="translate(0,0)"/>
<path d="" fill="#000000" transform="translate(0,0)"/>
<path d="" fill="#000000" transform="translate(0,0)"/>
<path d="" fill="#000000" transform="translate(0,0)"/>
<path d="" fill="#000000" transform="translate(0,0)"/>
<path d="" fill="#000000" transform="translate(0,0)"/>
<path d="" fill="#000000" transform="translate(0,0)"/>
<path d="" fill="#000000" transform="translate(0,0)"/>
<path d="" fill="#000000" transform="translate(0,0)"/>
<path d="" fill="#000000" transform="translate(0,0)"/>
<path d="" fill="#000000" transform="translate(0,0)"/>
<path d="" fill="#000000" transform="translate(0,0)"/>
<path d="" fill="#000000" transform="translate(0,0)"/>
<path d="" fill="#000000" transform="translate(0,0)"/>
<path d="" fill="#000000" transform="translate(0,0)"/>
<path d="" fill="#000000" transform="translate(0,0)"/>
<path d="" fill="#000000" transform="translate(0,0)"/>
<path d="" fill="#000000" transform="translate(0,0)"/>
<path d="" fill="#000000" transform="translate(0,0)"/>
<path d="" fill="#000000" transform="translate(0,0)"/>
<path d="" fill="#000000" transform="translate(0,0)"/>
<path d="" fill="#000000" transform="translate(0,0)"/>
<path d="" fill="#000000" transform="translate(0,0)"/>
<path d="" fill="#000000" transform="translate(0,0)"/>
<path d="" fill="#000000" transform="translate(0,0)"/>
<path d="" fill="#000000" transform="translate(0,0)"/>
<path d="" fill="#000000" transform="translate(0,0)"/>
<path d="" fill="#000000" transform="translate(0,0)"/>
<path d="" fill="#000000" transform="translate(0,0)"/>
<path d="" fill="#000000" transform="translate(0,0)"/>
<path d="" fill="#000000" transform="translate(0,0)"/>
<path d="" fill="#000000" transform="translate(0,0)"/>
<path d="" fill="#000000" transform="translate(0,0)"/>
<path d="" fill="#000000" transform="translate(0,0)"/>
<path d="" fill="#000000" transform="translate(0,0)"/>
<path d="" fill="#000000" transform="translate(0,0)"/>
<path d="" fill="#000000" transform="translate(0,0)"/>
<path d="" fill="#000000" transform="translate(0,0)"/>
<path d="" fill="#000000" transform="translate(0,0)"/>
<path d="" fill="#000000" transform="translate(0,0)"/>
<path d="" fill="#000000" transform="translate(0,0)"/>
<path d="" fill="#000000" transform="translate(0,0)"/>
<path d="" fill="#000000" transform="translate(0,0)"/>
<path d="" fill="#000000" transform="translate(0,0)"/>
<path d="" fill="#000000" transform="translate(0,0)"/>
<path d="" fill="#000000" transform="translate(0,0)"/>
<path d="" fill="#000000" transform="translate(0,0)"/>
<path d="" fill="#000000" transform="translate(0,0)"/>
<path d="" fill="#000000" transform="translate(0,0)"/>
<path d="" fill="#000000" transform="translate(0,0)"/>
<path d="" fill="#000000" transform="translate(0,0)"/>
<path d="" fill="#000000" transform="translate(0,0)"/>
<path d="" fill="#000000" transform="translate(0,0)"/>
<path d="" fill="#000000" transform="translate(0,0)"/>
<path d="" fill="#000000" transform="translate(0,0)"/>
<path d="" fill="#000000" transform="translate(0,0)"/>
<path d="" fill="#000000" transform="translate(0,0)"/>
<path d="" fill="#000000" transform="translate(0,0)"/>
<path d="" fill="#000000" transform="translate(0,0)"/>
</svg>
